<mxfile host="app.diagrams.net" modified="2022-12-09T13:44:59.927Z" agent="5.0 (Windows NT 10.0; Win64; x64) AppleWebKit/537.36 (KHTML, like Gecko) Chrome/92.0.4515.107 Safari/537.36" etag="q62UVq8rOHN_2L-dtc1i" version="20.3.0" type="github">
  <diagram id="mdOLx7ikgPztlkzabKQX" name="第 1 页">
    <mxGraphModel dx="806" dy="490" grid="1" gridSize="10" guides="1" tooltips="1" connect="1" arrows="1" fold="1" page="1" pageScale="1" pageWidth="827" pageHeight="1169" math="0" shadow="0">
      <root>
        <mxCell id="0" />
        <mxCell id="1" parent="0" />
        <mxCell id="Bmt_oupGKQswNtr7G6H6-1" value="frame0" style="rounded=0;whiteSpace=wrap;html=1;fillColor=#dae8fc;strokeColor=#6c8ebf;" vertex="1" parent="1">
          <mxGeometry x="140" y="180" width="100" height="20" as="geometry" />
        </mxCell>
        <mxCell id="Bmt_oupGKQswNtr7G6H6-2" value="" style="endArrow=none;dashed=1;html=1;rounded=0;" edge="1" parent="1">
          <mxGeometry width="50" height="50" relative="1" as="geometry">
            <mxPoint x="120" y="120" as="sourcePoint" />
            <mxPoint x="680" y="120" as="targetPoint" />
          </mxGeometry>
        </mxCell>
        <mxCell id="Bmt_oupGKQswNtr7G6H6-4" value="frame2" style="rounded=0;whiteSpace=wrap;html=1;fillColor=#dae8fc;strokeColor=#6c8ebf;" vertex="1" parent="1">
          <mxGeometry x="250" y="180" width="80" height="20" as="geometry" />
        </mxCell>
        <mxCell id="Bmt_oupGKQswNtr7G6H6-5" value="frame1" style="rounded=0;whiteSpace=wrap;html=1;fillColor=#f8cecc;strokeColor=#b85450;" vertex="1" parent="1">
          <mxGeometry x="160" y="240" width="80" height="20" as="geometry" />
        </mxCell>
        <mxCell id="Bmt_oupGKQswNtr7G6H6-6" value="" style="endArrow=classic;html=1;rounded=0;" edge="1" parent="1">
          <mxGeometry width="50" height="50" relative="1" as="geometry">
            <mxPoint x="140" y="80" as="sourcePoint" />
            <mxPoint x="140" y="120" as="targetPoint" />
          </mxGeometry>
        </mxCell>
        <mxCell id="Bmt_oupGKQswNtr7G6H6-7" value="" style="endArrow=classic;html=1;rounded=0;" edge="1" parent="1">
          <mxGeometry width="50" height="50" relative="1" as="geometry">
            <mxPoint x="155" y="80" as="sourcePoint" />
            <mxPoint x="155" y="120" as="targetPoint" />
          </mxGeometry>
        </mxCell>
        <mxCell id="Bmt_oupGKQswNtr7G6H6-8" value="" style="endArrow=classic;html=1;rounded=0;" edge="1" parent="1">
          <mxGeometry width="50" height="50" relative="1" as="geometry">
            <mxPoint x="169" y="80" as="sourcePoint" />
            <mxPoint x="169" y="120" as="targetPoint" />
          </mxGeometry>
        </mxCell>
        <mxCell id="Bmt_oupGKQswNtr7G6H6-9" value="" style="endArrow=classic;html=1;rounded=0;" edge="1" parent="1">
          <mxGeometry width="50" height="50" relative="1" as="geometry">
            <mxPoint x="184" y="80" as="sourcePoint" />
            <mxPoint x="184" y="120" as="targetPoint" />
          </mxGeometry>
        </mxCell>
        <mxCell id="Bmt_oupGKQswNtr7G6H6-10" value="" style="endArrow=classic;html=1;rounded=0;" edge="1" parent="1">
          <mxGeometry width="50" height="50" relative="1" as="geometry">
            <mxPoint x="388" y="81" as="sourcePoint" />
            <mxPoint x="388" y="121" as="targetPoint" />
          </mxGeometry>
        </mxCell>
        <mxCell id="Bmt_oupGKQswNtr7G6H6-11" value="" style="endArrow=classic;html=1;rounded=0;" edge="1" parent="1">
          <mxGeometry width="50" height="50" relative="1" as="geometry">
            <mxPoint x="403" y="81" as="sourcePoint" />
            <mxPoint x="403" y="121" as="targetPoint" />
          </mxGeometry>
        </mxCell>
        <mxCell id="Bmt_oupGKQswNtr7G6H6-12" value="frame3" style="rounded=0;whiteSpace=wrap;html=1;fillColor=#f8cecc;strokeColor=#b85450;" vertex="1" parent="1">
          <mxGeometry x="250" y="240" width="110" height="20" as="geometry" />
        </mxCell>
        <mxCell id="Bmt_oupGKQswNtr7G6H6-13" value="" style="endArrow=classic;html=1;rounded=0;" edge="1" parent="1">
          <mxGeometry width="50" height="50" relative="1" as="geometry">
            <mxPoint x="417" y="80" as="sourcePoint" />
            <mxPoint x="417" y="120" as="targetPoint" />
          </mxGeometry>
        </mxCell>
        <mxCell id="Bmt_oupGKQswNtr7G6H6-14" value="" style="endArrow=classic;html=1;rounded=0;" edge="1" parent="1">
          <mxGeometry width="50" height="50" relative="1" as="geometry">
            <mxPoint x="432" y="80" as="sourcePoint" />
            <mxPoint x="432" y="120" as="targetPoint" />
          </mxGeometry>
        </mxCell>
        <mxCell id="Bmt_oupGKQswNtr7G6H6-15" value="frame4" style="rounded=0;whiteSpace=wrap;html=1;fillColor=#dae8fc;strokeColor=#6c8ebf;" vertex="1" parent="1">
          <mxGeometry x="393" y="180" width="100" height="20" as="geometry" />
        </mxCell>
        <mxCell id="Bmt_oupGKQswNtr7G6H6-16" value="frame6" style="rounded=0;whiteSpace=wrap;html=1;fillColor=#dae8fc;strokeColor=#6c8ebf;" vertex="1" parent="1">
          <mxGeometry x="503" y="180" width="80" height="20" as="geometry" />
        </mxCell>
        <mxCell id="Bmt_oupGKQswNtr7G6H6-17" value="frame5" style="rounded=0;whiteSpace=wrap;html=1;fillColor=#f8cecc;strokeColor=#b85450;" vertex="1" parent="1">
          <mxGeometry x="413" y="240" width="80" height="20" as="geometry" />
        </mxCell>
        <mxCell id="Bmt_oupGKQswNtr7G6H6-18" value="frame7" style="rounded=0;whiteSpace=wrap;html=1;" vertex="1" parent="1">
          <mxGeometry x="503" y="240" width="110" height="20" as="geometry" />
        </mxCell>
        <mxCell id="Bmt_oupGKQswNtr7G6H6-19" value="" style="endArrow=none;html=1;rounded=0;" edge="1" parent="1">
          <mxGeometry width="50" height="50" relative="1" as="geometry">
            <mxPoint x="140" y="320" as="sourcePoint" />
            <mxPoint x="140" y="250" as="targetPoint" />
          </mxGeometry>
        </mxCell>
        <mxCell id="Bmt_oupGKQswNtr7G6H6-20" value="" style="endArrow=none;html=1;rounded=0;" edge="1" parent="1">
          <mxGeometry width="50" height="50" relative="1" as="geometry">
            <mxPoint x="360" y="320" as="sourcePoint" />
            <mxPoint x="360" y="250" as="targetPoint" />
          </mxGeometry>
        </mxCell>
        <mxCell id="Bmt_oupGKQswNtr7G6H6-21" value="" style="endArrow=none;html=1;rounded=0;" edge="1" parent="1">
          <mxGeometry width="50" height="50" relative="1" as="geometry">
            <mxPoint x="393" y="320" as="sourcePoint" />
            <mxPoint x="393" y="259" as="targetPoint" />
          </mxGeometry>
        </mxCell>
        <mxCell id="Bmt_oupGKQswNtr7G6H6-22" value="" style="endArrow=none;html=1;rounded=0;" edge="1" parent="1">
          <mxGeometry width="50" height="50" relative="1" as="geometry">
            <mxPoint x="613" y="320" as="sourcePoint" />
            <mxPoint x="613" y="259" as="targetPoint" />
          </mxGeometry>
        </mxCell>
        <mxCell id="Bmt_oupGKQswNtr7G6H6-23" value="" style="endArrow=classic;startArrow=classic;html=1;rounded=0;" edge="1" parent="1">
          <mxGeometry width="50" height="50" relative="1" as="geometry">
            <mxPoint x="140" y="290" as="sourcePoint" />
            <mxPoint x="360" y="290" as="targetPoint" />
          </mxGeometry>
        </mxCell>
        <mxCell id="Bmt_oupGKQswNtr7G6H6-24" value="busy" style="edgeLabel;html=1;align=center;verticalAlign=middle;resizable=0;points=[];" vertex="1" connectable="0" parent="Bmt_oupGKQswNtr7G6H6-23">
          <mxGeometry x="-0.1091" relative="1" as="geometry">
            <mxPoint as="offset" />
          </mxGeometry>
        </mxCell>
        <mxCell id="Bmt_oupGKQswNtr7G6H6-25" value="" style="endArrow=classic;startArrow=classic;html=1;rounded=0;" edge="1" parent="1">
          <mxGeometry width="50" height="50" relative="1" as="geometry">
            <mxPoint x="393" y="290" as="sourcePoint" />
            <mxPoint x="613" y="290" as="targetPoint" />
          </mxGeometry>
        </mxCell>
        <mxCell id="Bmt_oupGKQswNtr7G6H6-26" value="busy" style="edgeLabel;html=1;align=center;verticalAlign=middle;resizable=0;points=[];" vertex="1" connectable="0" parent="Bmt_oupGKQswNtr7G6H6-25">
          <mxGeometry x="-0.1091" relative="1" as="geometry">
            <mxPoint as="offset" />
          </mxGeometry>
        </mxCell>
        <mxCell id="Bmt_oupGKQswNtr7G6H6-27" value="" style="endArrow=classic;startArrow=classic;html=1;rounded=0;" edge="1" parent="1">
          <mxGeometry width="50" height="50" relative="1" as="geometry">
            <mxPoint x="360" y="290" as="sourcePoint" />
            <mxPoint x="390" y="290" as="targetPoint" />
          </mxGeometry>
        </mxCell>
        <mxCell id="Bmt_oupGKQswNtr7G6H6-29" value="idle" style="text;html=1;strokeColor=none;fillColor=none;align=center;verticalAlign=middle;whiteSpace=wrap;rounded=0;" vertex="1" parent="1">
          <mxGeometry x="360" y="265" width="37" height="30" as="geometry" />
        </mxCell>
        <mxCell id="Bmt_oupGKQswNtr7G6H6-31" value="empty" style="text;html=1;strokeColor=none;fillColor=none;align=center;verticalAlign=middle;whiteSpace=wrap;rounded=0;" vertex="1" parent="1">
          <mxGeometry x="330" y="175" width="60" height="30" as="geometry" />
        </mxCell>
        <mxCell id="Bmt_oupGKQswNtr7G6H6-32" value="empty" style="text;html=1;strokeColor=none;fillColor=none;align=center;verticalAlign=middle;whiteSpace=wrap;rounded=0;" vertex="1" parent="1">
          <mxGeometry x="360" y="230" width="60" height="30" as="geometry" />
        </mxCell>
        <mxCell id="Bmt_oupGKQswNtr7G6H6-33" value="VCMD0" style="rounded=0;whiteSpace=wrap;html=1;fillColor=#dae8fc;strokeColor=#6c8ebf;" vertex="1" parent="1">
          <mxGeometry x="30" y="175" width="70" height="25" as="geometry" />
        </mxCell>
        <mxCell id="Bmt_oupGKQswNtr7G6H6-34" value="VCMD1" style="rounded=0;whiteSpace=wrap;html=1;fillColor=#f8cecc;strokeColor=#b85450;" vertex="1" parent="1">
          <mxGeometry x="30" y="239" width="70" height="25" as="geometry" />
        </mxCell>
        <mxCell id="Bmt_oupGKQswNtr7G6H6-35" value="cmd buf linked for frame 0~3" style="text;html=1;strokeColor=none;fillColor=none;align=center;verticalAlign=middle;whiteSpace=wrap;rounded=0;" vertex="1" parent="1">
          <mxGeometry x="110" y="50" width="110" height="30" as="geometry" />
        </mxCell>
        <mxCell id="Bmt_oupGKQswNtr7G6H6-36" value="cmd buf linked for frame 4~7" style="text;html=1;strokeColor=none;fillColor=none;align=center;verticalAlign=middle;whiteSpace=wrap;rounded=0;" vertex="1" parent="1">
          <mxGeometry x="350" y="50" width="110" height="30" as="geometry" />
        </mxCell>
      </root>
    </mxGraphModel>
  </diagram>
</mxfile>
